<svg xmlns:xlink="http://www.w3.org/1999/xlink" xmlns="http://www.w3.org/2000/svg" class="safety-icon" width="auto"  height="auto" ><defs><symbol id="safety" viewBox="0 0 18 18" fill="none">
    <path d="M16.3093 4.62131L16.2878 4.1278L15.7917 4.07674C13.8857 3.88359 12.2463 3.17905 11.2077 2.62172C10.0703 2.01503 9.37999 1.44238 9.37398 1.43643L9 1.125L8.62775 1.43643C8.62087 1.44153 7.93138 2.01333 6.79312 2.62257C5.75459 3.17905 4.11512 3.88359 2.20914 4.07759L1.71308 4.12865L1.69073 4.62046C1.68815 4.70895 1.6082 6.81406 2.4275 9.35993C2.91066 10.8643 3.60789 12.2104 4.50113 13.3642C5.62219 14.8124 7.05275 15.9543 8.75154 16.7576L9.00086 16.875L9.25018 16.7576C10.9481 15.9543 12.3795 14.8124 13.4997 13.3642C14.3921 12.2113 15.0902 10.8643 15.5716 9.36078C16.3918 6.81321 16.3119 4.70895 16.3093 4.62131ZM9 15.6063C7.58148 14.8916 6.38304 13.913 5.43048 12.6878C4.61977 11.6446 3.98272 10.421 3.53911 9.05105C2.99491 7.3748 2.87283 5.88063 2.8479 5.14716C3.61305 5.03485 4.38507 4.84595 5.15193 4.58387C5.90246 4.3269 6.64783 3.99931 7.36999 3.61045C8.10332 3.21649 8.66128 2.83955 8.99914 2.59279C9.33787 2.83955 9.89582 3.21649 10.6283 3.61045C11.3505 3.99931 12.0967 4.3269 12.8464 4.58387C13.6141 4.84595 14.3878 5.03485 15.1521 5.14801C15.1289 5.87382 15.0094 7.34672 14.4729 9.01361C14.031 10.3921 13.3949 11.6207 12.5833 12.669C11.629 13.9028 10.4254 14.8882 8.99828 15.6046L9 15.6063Z" fill="#FA8B18"></path>
    <path d="M11.6075 6.1875L8.02204 10.1243L6.58981 8.54993L6.39377 8.33646L6.00979 8.75895L5.625 9.18145L8.02042 11.8125L12.3746 7.03161L11.6075 6.1875Z" fill="#FA8B18"></path>
  </symbol></defs>
  <use xlink:href="#safety"></use>
</svg>