<svg xmlns:xlink="http://www.w3.org/1999/xlink" xmlns="http://www.w3.org/2000/svg" class="refresh-icon" width="auto"  height="auto" ><defs><symbol id="refresh" viewBox="0 0 12 12" fill="none">
    <g clip-path="url(#clip0_2925_980)">
      <path d="M9.81818 3.75L7.63636 6H9.27273C9.27273 7.86469 7.80818 9.375 6 9.375C5.44636 9.375 4.92818 9.23156 4.47 8.98406L3.67364 9.80531C4.35 10.2413 5.14364 10.5 6 10.5C8.41091 10.5 10.3636 8.48625 10.3636 6H12L9.81818 3.75ZM2.72727 6C2.72727 4.13531 4.19182 2.625 6 2.625C6.55364 2.625 7.07182 2.76844 7.53 3.01594L8.32636 2.19469C7.65 1.75875 6.85636 1.5 6 1.5C3.58909 1.5 1.63636 3.51375 1.63636 6H0L2.18182 8.25L4.36364 6H2.72727Z" fill="#FA8B18"></path>
    </g>
    <defs>
      <clipPath>
        <rect fill="#FA8B18"></rect>
      </clipPath>
    </defs>
  </symbol></defs>
  <use xlink:href="#refresh"></use>
</svg>