<svg xmlns:xlink="http://www.w3.org/1999/xlink" xmlns="http://www.w3.org/2000/svg" class="gp-icon" width="auto"  height="auto" ><defs><symbol id="google-play" viewBox="0 0 82 16" fill="none">
    <g clip-path="url(#clip0_2061_2864)">
      <path d="M79.68 6.73L78.18 10.55H78.135L76.57 6.73H75.155L77.5 12.07L76.16 15.04H77.535L81.15 6.73H79.68ZM69.08 3.56H67.77V12.37H69.08V3.56ZM64.15 3.56H61V12.37H62.32V9.035H64.155C64.525 9.04767 64.8938 8.98671 65.24 8.85568C65.5862 8.72464 65.9029 8.52614 66.1718 8.27169C66.4407 8.01724 66.6563 7.71192 66.8062 7.37345C66.9561 7.03498 67.0373 6.6701 67.045 6.3C67.0373 5.92925 66.956 5.56372 66.8058 5.22464C66.6557 4.88556 66.4397 4.57969 66.1703 4.32478C65.901 4.06987 65.5837 3.871 65.2369 3.73971C64.8901 3.60843 64.5206 3.54734 64.15 3.56ZM62.32 7.805V4.805H64.19C64.5879 4.805 64.9694 4.96304 65.2507 5.24434C65.532 5.52565 65.69 5.90718 65.69 6.305C65.69 6.70283 65.532 7.08436 65.2507 7.36566C64.9694 7.64697 64.5879 7.805 64.19 7.805H62.32ZM72.31 6.54C71.8302 6.51248 71.3527 6.62554 70.9362 6.86533C70.5197 7.10512 70.1822 7.46123 69.965 7.89L71.135 8.39C71.2509 8.17802 71.4263 8.00451 71.6395 7.89081C71.8526 7.77711 72.0944 7.72817 72.335 7.75C72.5002 7.73345 72.6671 7.74972 72.826 7.79787C72.9849 7.84602 73.1328 7.92511 73.261 8.03059C73.3892 8.13606 73.4954 8.26585 73.5733 8.41248C73.6512 8.55911 73.6994 8.71969 73.715 8.885V8.975C73.2958 8.74825 72.8266 8.62967 72.35 8.63C71.095 8.63 69.815 9.32 69.815 10.63C69.815 11.81 70.84 12.57 72 12.57C72.3301 12.591 72.6597 12.5221 72.9538 12.3706C73.2478 12.2192 73.4954 11.9909 73.67 11.71H73.72V12.39H75V9C75 7.435 73.83 6.565 72.32 6.565L72.31 6.54ZM72.155 11.37C71.725 11.37 71.125 11.15 71.125 10.62C71.125 9.94 71.87 9.68 72.52 9.68C72.9393 9.66879 73.3538 9.77069 73.72 9.975C73.6717 10.3574 73.4866 10.7093 73.1989 10.9657C72.9112 11.2222 72.5404 11.3658 72.155 11.37ZM24.745 12.56C23.5008 12.5641 22.3051 12.0778 21.417 11.2065C20.5288 10.3352 20.0197 9.14904 20 7.905C20.0197 6.66097 20.5288 5.4748 21.417 4.60349C22.3051 3.73218 23.5008 3.2459 24.745 3.25C25.3379 3.24013 25.9267 3.3487 26.4771 3.56936C27.0274 3.79001 27.5282 4.11831 27.95 4.535L27.045 5.43C26.4312 4.82853 25.6044 4.49422 24.745 4.5C23.8473 4.5 22.9863 4.85664 22.3515 5.49145C21.7167 6.12626 21.36 6.98725 21.36 7.885C21.36 8.78276 21.7167 9.64375 22.3515 10.2786C22.9863 10.9134 23.8473 11.27 24.745 11.27C25.1819 11.2879 25.6177 11.214 26.0242 11.0529C26.4308 10.8919 26.799 10.6473 27.105 10.335C27.512 9.89627 27.7571 9.33187 27.8 8.735H24.745V7.5H29.045C29.0919 7.76233 29.1137 8.02854 29.11 8.295C29.1532 9.40183 28.7559 10.4806 28.005 11.295C27.5811 11.7232 27.0717 12.0572 26.5099 12.2752C25.9482 12.4932 25.3468 12.5902 24.745 12.56ZM35.76 9.56C35.7764 9.95995 35.7118 10.3591 35.5701 10.7334C35.4284 11.1078 35.2124 11.4496 34.9353 11.7384C34.6581 12.0272 34.3254 12.257 33.9572 12.414C33.589 12.5709 33.1928 12.6518 32.7925 12.6518C32.3922 12.6518 31.9961 12.5709 31.6279 12.414C31.2596 12.257 30.9269 12.0272 30.6498 11.7384C30.3726 11.4496 30.1567 11.1078 30.0149 10.7334C29.8732 10.3591 29.8086 9.95995 29.825 9.56C29.8086 9.16006 29.8732 8.76092 30.0149 8.38657C30.1567 8.01222 30.3726 7.67038 30.6498 7.38159C30.9269 7.0928 31.2596 6.86302 31.6279 6.70605C31.9961 6.54908 32.3922 6.46817 32.7925 6.46817C33.1928 6.46817 33.589 6.54908 33.9572 6.70605C34.3254 6.86302 34.6581 7.0928 34.9353 7.38159C35.2124 7.67038 35.4284 8.01222 35.5701 8.38657C35.7118 8.76092 35.7764 9.16006 35.76 9.56ZM34.46 9.56C34.4821 9.32773 34.4554 9.09342 34.3816 8.87207C34.3078 8.65073 34.1886 8.44724 34.0316 8.27464C33.8747 8.10204 33.6833 7.96414 33.47 7.86978C33.2566 7.77541 33.0258 7.72667 32.7925 7.72667C32.5592 7.72667 32.3285 7.77541 32.1151 7.86978C31.9017 7.96414 31.7104 8.10204 31.5534 8.27464C31.3964 8.44724 31.2772 8.65073 31.2034 8.87207C31.1297 9.09342 31.103 9.32773 31.125 9.56C31.103 9.79227 31.1297 10.0266 31.2034 10.2479C31.2772 10.4693 31.3964 10.6728 31.5534 10.8454C31.7104 11.018 31.9017 11.1559 32.1151 11.2502C32.3285 11.3446 32.5592 11.3933 32.7925 11.3933C33.0258 11.3933 33.2566 11.3446 33.47 11.2502C33.6833 11.1559 33.8747 11.018 34.0316 10.8454C34.1886 10.6728 34.3078 10.4693 34.3816 10.2479C34.4554 10.0266 34.4821 9.79227 34.46 9.56ZM42.41 9.56C42.41 10.3464 42.0976 11.1005 41.5416 11.6566C40.9855 12.2126 40.2314 12.525 39.445 12.525C38.6587 12.525 37.9045 12.2126 37.3484 11.6566C36.7924 11.1005 36.48 10.3464 36.48 9.56C36.48 8.77364 36.7924 8.01948 37.3484 7.46343C37.9045 6.90739 38.6587 6.595 39.445 6.595C40.2314 6.595 40.9855 6.90739 41.5416 7.46343C42.0976 8.01948 42.41 8.77364 42.41 9.56ZM41.115 9.56C41.1371 9.32773 41.1104 9.09342 41.0366 8.87207C40.9628 8.65073 40.8436 8.44724 40.6866 8.27464C40.5297 8.10204 40.3383 7.96414 40.125 7.86978C39.9116 7.77541 39.6808 7.72667 39.4475 7.72667C39.2142 7.72667 38.9835 7.77541 38.7701 7.86978C38.5567 7.96414 38.3654 8.10204 38.2084 8.27464C38.0514 8.44724 37.9322 8.65073 37.8584 8.87207C37.7847 9.09342 37.758 9.32773 37.78 9.56C37.758 9.79227 37.7847 10.0266 37.8584 10.2479C37.9322 10.4693 38.0514 10.6728 38.2084 10.8454C38.3654 11.018 38.5567 11.1559 38.7701 11.2502C38.9835 11.3446 39.2142 11.3933 39.4475 11.3933C39.6808 11.3933 39.9116 11.3446 40.125 11.2502C40.3383 11.1559 40.5297 11.018 40.6866 10.8454C40.8436 10.6728 40.9628 10.4693 41.0366 10.2479C41.1104 10.0266 41.1371 9.79227 41.115 9.56ZM48.9 12.13C48.9 14.34 47.585 15.25 46.035 15.25C45.4669 15.2548 44.91 15.0911 44.4348 14.7796C43.9596 14.4682 43.5873 14.0229 43.365 13.5L44.5 13C44.6178 13.3053 44.8228 13.5691 45.0896 13.7585C45.3564 13.9479 45.673 14.0545 46 14.065C47 14.065 47.61 13.45 47.61 12.305V11.875H47.56C47.3639 12.0938 47.1232 12.2682 46.8542 12.3863C46.5851 12.5045 46.2939 12.5637 46 12.56C45.2044 12.56 44.4413 12.2439 43.8787 11.6813C43.3161 11.1187 43 10.3557 43 9.56C43 8.76435 43.3161 8.00129 43.8787 7.43868C44.4413 6.87607 45.2044 6.56 46 6.56C46.2958 6.55349 46.5896 6.60985 46.862 6.72535C47.1343 6.84085 47.3791 7.01286 47.58 7.23H47.63V6.73H48.9V12.13ZM47.735 9.575C47.7534 9.34871 47.7261 9.12104 47.6548 8.9055C47.5835 8.68996 47.4696 8.49094 47.3199 8.32025C47.1702 8.14957 46.9877 8.0107 46.7833 7.91188C46.5789 7.81306 46.3568 7.75631 46.13 7.745C45.8988 7.75266 45.6715 7.80634 45.4613 7.90289C45.2511 7.99945 45.0623 8.13694 44.9059 8.30734C44.7494 8.47773 44.6286 8.6776 44.5503 8.89526C44.472 9.11293 44.4379 9.34401 44.45 9.575C44.4393 9.80443 44.4745 10.0337 44.5536 10.2493C44.6326 10.465 44.754 10.6627 44.9104 10.8308C45.0669 10.9989 45.2554 11.1341 45.4648 11.2284C45.6743 11.3227 45.9004 11.3743 46.13 11.38C46.3554 11.3713 46.5767 11.3171 46.7807 11.2208C46.9846 11.1244 47.167 10.9878 47.3169 10.8193C47.4668 10.6507 47.5811 10.4536 47.6529 10.2398C47.7248 10.026 47.7527 9.79987 47.735 9.575ZM51.215 3.57V12.375H49.895V3.57H51.215ZM56.415 10.55L57.445 11.23C57.17 11.6404 56.7979 11.9765 56.3618 12.2085C55.9257 12.4406 55.439 12.5613 54.945 12.56C54.552 12.5656 54.162 12.4915 53.7985 12.342C53.4351 12.1925 53.1057 11.9708 52.8304 11.6904C52.5551 11.4099 52.3395 11.0765 52.1968 10.7103C52.0541 10.3441 51.9871 9.9528 52 9.56C51.9415 8.88472 52.1335 8.21151 52.5394 7.66871C52.9454 7.1259 53.5369 6.75145 54.2012 6.61674C54.8655 6.48203 55.5561 6.59647 56.1414 6.93826C56.7268 7.28004 57.1659 7.82527 57.375 8.47L57.51 8.815L53.51 10.47C53.6347 10.7502 53.8403 10.9866 54.1006 11.1488C54.3608 11.311 54.6636 11.3915 54.97 11.38C55.2615 11.3754 55.547 11.2969 55.7997 11.1517C56.0525 11.0065 56.2642 10.7995 56.415 10.55ZM53.26 9.47L55.95 8.36C55.8459 8.15623 55.6843 7.98746 55.4852 7.87459C55.2861 7.76173 55.0583 7.70972 54.83 7.725C54.6117 7.73455 54.3975 7.7875 54.1998 7.88076C54.0022 7.97402 53.8251 8.10573 53.679 8.26818C53.5328 8.43063 53.4205 8.62058 53.3486 8.82693C53.2766 9.03328 53.2465 9.25189 53.26 9.47Z" fill="#5F6368"></path>
      <path d="M6.77002 7.64L0.0600197 14.67C0.135364 14.937 0.270769 15.1833 0.455883 15.39C0.640997 15.5967 0.870919 15.7583 1.12807 15.8626C1.38523 15.9668 1.6628 16.0108 1.93959 15.9913C2.21637 15.9718 2.48502 15.8893 2.72502 15.75L10.275 11.45L6.77002 7.64Z" fill="#EA4335"></path>
      <path d="M13.555 6.445L10.29 4.575L6.61502 7.8L10.305 11.44L13.545 9.59C13.8321 9.43972 14.0725 9.21373 14.2402 8.93653C14.408 8.65934 14.4967 8.34151 14.4967 8.0175C14.4967 7.6935 14.408 7.37567 14.2402 7.09848C14.0725 6.82128 13.8321 6.59529 13.545 6.445H13.555Z" fill="#FBBC04"></path>
      <path d="M0.0600197 1.33C0.0194592 1.47995 -0.000722223 1.63467 1.97359e-05 1.79V14.21C0.000425426 14.3653 0.0205874 14.5198 0.0600197 14.67L7.00002 7.82L0.0600197 1.33Z" fill="#4285F4"></path>
      <path d="M6.82002 8L10.29 4.575L2.75002 0.255004C2.46636 0.0888738 2.14374 0.000886923 1.81502 3.57607e-06C1.41801 -0.000783178 1.03163 0.128267 0.714784 0.367483C0.397935 0.6067 0.167997 0.942959 0.0600197 1.325L6.82002 8Z" fill="#34A853"></path>
    </g>
    <defs>
      <clipPath>
        <rect fill="#FA8B18"></rect>
      </clipPath>
    </defs>
  </symbol></defs>
  <use xlink:href="#google-play"></use>
</svg>