<svg xmlns:xlink="http://www.w3.org/1999/xlink" xmlns="http://www.w3.org/2000/svg" class="download-icon" width="auto"  height="auto" ><defs><symbol id="download" viewBox="0 0 15 14" fill="none">
    <path fill-rule="evenodd" clip-rule="evenodd" d="M4.58445 3.88988C4.40744 3.69948 4.12028 3.69948 3.94329 3.88988L3.30199 4.5799C3.12498 4.77035 3.12498 5.07913 3.30199 5.26974L6.91555 9.15758C6.93119 9.17455 7.21888 9.35954 7.50484 9.35939C7.78773 9.35925 8.06885 9.17435 8.08448 9.15758L11.6979 5.26974C11.8749 5.07914 11.8749 4.77035 11.6979 4.5799L11.0566 3.88988C10.8796 3.69948 10.5926 3.69948 10.4156 3.88988L8.37502 6.08545V1.34585C8.37502 1.08595 8.17903 0.875 7.93743 0.875H7.06246C6.82093 0.875 6.62504 1.08595 6.62504 1.34585V6.08545L4.58445 3.88988ZM3.12484 13.125H11.8749C12.8415 13.125 13.6249 12.2822 13.6249 11.2422V8.88852C13.6249 8.62862 13.429 8.41789 13.1875 8.41789H12.3125C12.0708 8.41789 11.8749 8.62862 11.8749 8.88852V10.3007C11.8749 10.8207 11.4832 11.2422 10.9999 11.2422H3.99982C3.51655 11.2422 3.12484 10.8207 3.12484 10.3007V8.88852C3.12484 8.62862 2.92899 8.41789 2.68743 8.41789H1.81228C1.57088 8.41789 1.37488 8.62862 1.37488 8.88852V11.2422C1.37488 12.2822 2.15844 13.125 3.12484 13.125Z" fill="#FA8B18"></path>
  </symbol></defs>
  <use xlink:href="#download"></use>
</svg>