<svg xmlns:xlink="http://www.w3.org/1999/xlink" xmlns="http://www.w3.org/2000/svg" class="howto-icon" width="auto"  height="auto" ><defs><symbol id="howto_share" viewBox="0 0 16 16" fill="none">
    <path d="M12.8333 7.83334C12.7006 7.83334 12.5735 7.88602 12.4797 7.97979C12.3859 8.07356 12.3333 8.20074 12.3333 8.33334V12.3333H4.33325V4.33334H8.33325C8.46586 4.33334 8.59304 4.28067 8.68681 4.1869C8.78057 4.09313 8.83325 3.96595 8.83325 3.83334C8.83325 3.70074 8.78057 3.57356 8.68681 3.47979C8.59304 3.38602 8.46586 3.33334 8.33325 3.33334H3.83325C3.70064 3.33334 3.57347 3.38602 3.4797 3.47979C3.38593 3.57356 3.33325 3.70074 3.33325 3.83334V12.8333C3.33325 12.966 3.38593 13.0931 3.4797 13.1869C3.57347 13.2807 3.70064 13.3333 3.83325 13.3333H12.8333C12.9659 13.3333 13.093 13.2807 13.1868 13.1869C13.2806 13.0931 13.3333 12.966 13.3333 12.8333V8.33334C13.3333 8.20074 13.2806 8.07356 13.1868 7.97979C13.093 7.88602 12.9659 7.83334 12.8333 7.83334Z" fill="#FA8B18"></path>
    <path d="M13.0243 3.37184C12.9638 3.3465 12.8988 3.33341 12.8333 3.33334H10.3333C10.2006 3.33334 10.0735 3.38602 9.9797 3.47979C9.88593 3.57356 9.83325 3.70074 9.83325 3.83334C9.83325 3.96595 9.88593 4.09313 9.9797 4.1869C10.0735 4.28067 10.2006 4.33334 10.3333 4.33334H11.6263L7.97975 7.97984C7.932 8.02597 7.89391 8.08114 7.8677 8.14214C7.8415 8.20314 7.8277 8.26875 7.82713 8.33514C7.82655 8.40153 7.8392 8.46737 7.86434 8.52882C7.88948 8.59027 7.92661 8.64609 7.97355 8.69304C8.0205 8.73999 8.07633 8.77711 8.13777 8.80225C8.19922 8.82739 8.26506 8.84005 8.33145 8.83947C8.39784 8.83889 8.46345 8.8251 8.52445 8.79889C8.58546 8.77269 8.64063 8.7346 8.68675 8.68684L12.3333 5.04034V6.33334C12.3333 6.46595 12.3859 6.59313 12.4797 6.6869C12.5735 6.78066 12.7006 6.83334 12.8333 6.83334C12.9659 6.83334 13.093 6.78066 13.1868 6.6869C13.2806 6.59313 13.3333 6.46595 13.3333 6.33334V3.83334C13.3329 3.76778 13.3199 3.70291 13.2948 3.64234C13.244 3.51989 13.1467 3.42259 13.0243 3.37184Z" fill="#FA8B18"></path>
  </symbol></defs>
  <use xlink:href="#howto_share"></use>
</svg>