<svg xmlns:xlink="http://www.w3.org/1999/xlink" xmlns="http://www.w3.org/2000/svg" class="svg-align telegram" style="" width="auto"  height="auto" ><defs><svg viewBox="0 0 15 14" id="icon-telegram" xmlns="http://www.w3.org/2000/svg"><path opacity=".6" d="M7.537 9.518 12.743 2.5 4.48 7.508l1.074 3.61c.126.355.064.496.429.496l.192-2.936 1.362.84Z"></path><path opacity=".3" d="M5.982 11.614c.282 0 .406-.132.563-.287l1.503-1.493-1.873-1.155-.193 2.935Z"></path><path d="m6.174 8.68 4.54 3.427c.518.292.892.14 1.021-.492l1.848-8.9c.189-.774-.29-1.125-.784-.895L1.947 6.095c-.74.304-.736.726-.134.914l2.785.889 6.447-4.156c.304-.19.583-.088.354.12"></path></svg></defs><use xlink:href="#icon-telegram" fill="#FA8B18"></use></svg>