<svg xmlns:xlink="http://www.w3.org/1999/xlink" xmlns="http://www.w3.org/2000/svg" class="star-icon" width="auto"  height="auto" ><defs><symbol id="stars" viewBox="0 0 12 12" fill="none">
    <g clip-path="url(#clip0_2906_611)">
      <path d="M7.5621 3.26422C7.73384 3.63004 8.06549 3.88425 8.45636 3.94005L10.7423 4.28727C11.228 4.36168 11.4234 4.98791 11.0681 5.34753L9.40984 7.04022C9.13149 7.32544 9.0012 7.73466 9.06635 8.13768L9.45722 10.5248C9.54013 11.0332 9.03082 11.4177 8.59849 11.1758L6.54939 10.0474C6.2059 9.85517 5.79135 9.85517 5.44786 10.0474L3.39876 11.1758C2.96644 11.4177 2.45712 11.027 2.54003 10.5248L2.9309 8.13768C2.99605 7.73466 2.87168 7.32544 2.58741 7.04022L0.929184 5.34753C0.579772 4.98791 0.769283 4.36168 1.25491 4.28727L3.54089 3.94005C3.92584 3.88425 4.25749 3.63004 4.43515 3.26422L5.4597 1.0941C5.67882 0.635279 6.30658 0.635279 6.51978 1.0941L7.5621 3.26422Z" fill="#FA8B18"></path>
    </g>
    <defs>
      <clipPath>
        <rect fill="#FA8B18"></rect>
      </clipPath>
    </defs>
  </symbol></defs>
  <use xlink:href="#stars"></use>
</svg>