<svg xmlns:xlink="http://www.w3.org/1999/xlink" xmlns="http://www.w3.org/2000/svg" viewBox="0 0 512 512" width="auto"  height="auto" ><path fill="#FA8B18" d="M443 233c0-84-84-152-188-152S67 149 67 233c0 76 67 139 157 151 7 1 15 4 17 9s1 12 1 17l-3 16c-1 5-4 19 16 10s108-63 148-109c27-30 40-60 40-94zm-254 45a4 4 0 0 1-4 4h-53a4 4 0 0 1-2-1 4 4 0 0 1-1-3v-82a4 4 0 0 1 4-3h13a4 4 0 0 1 3 3v65h36a4 4 0 0 1 4 4zm32 0a4 4 0 0 1-4 4h-13a4 4 0 0 1-4-4v-82a4 4 0 0 1 4-3h13a4 4 0 0 1 4 3zm90 0a4 4 0 0 1-3 4h-13a4 4 0 0 1-1 0h-1v-1a3 3 0 0 1-1-1l-38-50v48a4 4 0 0 1-4 4h-13a4 4 0 0 1-4-4v-82a4 4 0 0 1 4-3h16v1l38 51v-49a4 4 0 0 1 4-3h13a4 4 0 0 1 3 3zm73-69a4 4 0 0 1-3 4h-36v14h36a4 4 0 0 1 3 4v13a4 4 0 0 1-3 4h-36v13h36a4 4 0 0 1 3 4v13a4 4 0 0 1-3 4h-53a4 4 0 0 1-3-1 4 4 0 0 1-1-3v-82a4 4 0 0 1 1-2 4 4 0 0 1 3-1h53a4 4 0 0 1 3 3z" data-name="%E3%83%AC%E3%82%A4%E3%83%A4%E3%83%BC 1"/></svg>