<svg xmlns:xlink="http://www.w3.org/1999/xlink" xmlns="http://www.w3.org/2000/svg" class="user-icon" width="auto"  height="auto" ><defs><symbol id="user" viewBox="0 0 12 12" fill="none">
    <g clip-path="url(#clip0_2906_615)">
      <path d="M9.84084 8.46973L9.84079 8.4698L9.84918 8.47407C10.1207 8.61217 10.3487 8.82285 10.5077 9.0827C10.6667 9.34255 10.7505 9.64139 10.7499 9.94604V9.94703V10.2954C10.7499 10.416 10.702 10.5316 10.6168 10.6169C10.5316 10.7021 10.4159 10.75 10.2954 10.75H1.70448C1.58393 10.75 1.46832 10.7021 1.38307 10.6169C1.29783 10.5316 1.24994 10.416 1.24994 10.2954V9.93813C1.25079 9.63494 1.33528 9.33785 1.49412 9.07958C1.65306 8.82114 1.88026 8.61161 2.15069 8.47407L2.15073 8.47415L2.15904 8.46973C3.34368 7.83891 4.65843 7.49149 5.99994 7.45471C7.34144 7.49149 8.6562 7.83891 9.84084 8.46973ZM11.2499 10.2954V9.94703L0.749939 9.93749V10.2954C0.749939 10.5486 0.850507 10.7914 1.02952 10.9704C1.20853 11.1494 1.45132 11.25 1.70448 11.25H10.2954C10.5485 11.25 10.7913 11.1494 10.9704 10.9704C11.1494 10.7914 11.2499 10.5486 11.2499 10.2954ZM8.36348 3.61362C8.36348 4.91902 7.30525 5.97725 5.99985 5.97725C4.69445 5.97725 3.63621 4.91902 3.63621 3.61362C3.63621 2.30822 4.69445 1.24998 5.99985 1.24998C7.30525 1.24998 8.36348 2.30822 8.36348 3.61362Z" fill="#FA8B18" stroke="#FA8B18"></path>
    </g>
    <defs>
      <clipPath>
        <rect fill="#FA8B18"></rect>
      </clipPath>
    </defs>
  </symbol></defs>
  <use xlink:href="#user"></use>
</svg>