<svg xmlns:xlink="http://www.w3.org/1999/xlink" xmlns="http://www.w3.org/2000/svg" class="svg-align telegram" style="height: auto;" width="auto"  height="auto" >
<defs>
<svg viewBox="0 0 108 32" id="google_play" xmlns="http://www.w3.org/2000/svg"><path d="M85.548 24h1.493V14h-1.493V24Zm13.446-6.398-1.711 4.336h-.052l-1.775-4.336h-1.609l2.665 6.06-1.52 3.37h1.557l4.105-9.43h-1.66Zm-8.466 5.262c-.488 0-1.17-.245-1.17-.85 0-.771.849-1.067 1.582-1.067.656 0 .965.141 1.364.334a1.81 1.81 0 0 1-1.776 1.583Zm.18-5.481c-1.08 0-2.2.476-2.663 1.531l1.325.553c.283-.553.81-.733 1.364-.733.772 0 1.557.463 1.57 1.287v.103a3.304 3.304 0 0 0-1.557-.386c-1.429 0-2.882.784-2.882 2.251 0 1.338 1.17 2.2 2.483 2.2 1.003 0 1.557-.45 1.904-.978h.052v.773h1.441v-3.835c0-1.775-1.326-2.766-3.037-2.766Zm-9.225 1.436H79.36v-3.428h2.123c1.116 0 1.75.924 1.75 1.714 0 .775-.634 1.714-1.75 1.714ZM81.444 14h-3.576V24h1.492v-3.789h2.085c1.654 0 3.28-1.197 3.28-3.105 0-1.909-1.626-3.107-3.28-3.107ZM61.94 22.866c-1.031 0-1.894-.864-1.894-2.05 0-1.198.863-2.074 1.894-2.074 1.018 0 1.817.876 1.817 2.075 0 1.185-.799 2.049-1.817 2.049Zm1.714-4.704h-.052c-.334-.4-.98-.76-1.79-.76-1.702 0-3.262 1.494-3.262 3.415 0 1.907 1.56 3.39 3.261 3.39.812 0 1.457-.362 1.791-.774h.052v.49c0 1.302-.696 1.997-1.817 1.997-.915 0-1.482-.657-1.714-1.211l-1.301.541c.373.902 1.365 2.01 3.015 2.01 1.753 0 3.235-1.03 3.235-3.544v-6.109h-1.418v.555ZM66.104 24h1.494V13.998h-1.495V24Zm3.698-3.3c-.039-1.314 1.019-1.984 1.779-1.984.593 0 1.095.296 1.263.721l-3.042 1.264Zm4.64-1.134c-.284-.76-1.147-2.165-2.913-2.165-1.753 0-3.21 1.38-3.21 3.403 0 1.907 1.444 3.402 3.377 3.402 1.56 0 2.462-.953 2.836-1.508l-1.16-.773c-.387.567-.915.94-1.676.94-.76 0-1.301-.347-1.649-1.03l4.55-1.882-.155-.387Zm-36.246-1.12v1.443h3.454c-.103.812-.374 1.404-.786 1.817-.503.502-1.29 1.057-2.668 1.057-2.127 0-3.79-1.714-3.79-3.84 0-2.127 1.663-3.842 3.79-3.842a3.68 3.68 0 0 1 2.603 1.032l1.019-1.019c-.864-.825-2.011-1.456-3.622-1.456-2.913 0-5.362 2.371-5.362 5.284s2.449 5.284 5.362 5.284c1.572 0 2.758-.515 3.686-1.482.953-.954 1.25-2.294 1.25-3.377 0-.335-.026-.644-.078-.902h-4.858Zm8.863 4.42c-1.031 0-1.92-.85-1.92-2.062 0-1.225.889-2.062 1.92-2.062s1.92.837 1.92 2.062c0 1.211-.889 2.062-1.92 2.062Zm0-5.465c-1.882 0-3.415 1.43-3.415 3.403 0 1.959 1.533 3.402 3.415 3.402 1.882 0 3.415-1.443 3.415-3.402 0-1.972-1.533-3.403-3.415-3.403Zm7.45 5.465c-1.03 0-1.92-.85-1.92-2.062 0-1.225.89-2.062 1.92-2.062 1.032 0 1.92.837 1.92 2.062 0 1.211-.888 2.062-1.92 2.062Zm0-5.465c-1.881 0-3.415 1.43-3.415 3.403 0 1.959 1.534 3.402 3.415 3.402 1.883 0 3.416-1.443 3.416-3.402 0-1.972-1.533-3.403-3.416-3.403Z" style="fill:white;fill-opacity:1"></path><path d="m16.573 15.54-8.516 9.04v.005a2.3 2.3 0 0 0 3.39 1.387l.027-.016 9.587-5.532-4.488-4.884Z" style="fill:color(display-p3 .9216 .1922 .1922);fill-opacity:1"></path><path d="m25.19 14-.008-.005-4.14-2.4-4.662 4.15 4.679 4.679 4.117-2.376a2.302 2.302 0 0 0 .014-4.047Z" style="fill:color(display-p3 .9647 .7137 .0431);fill-opacity:1"></path><path d="M8.055 7.422a2.255 2.255 0 0 0-.078.592v15.974c0 .205.027.403.079.591l8.81-8.808-8.81-8.349Z" style="fill:color(display-p3 .3412 .4706 .7725);fill-opacity:1"></path><path d="m16.636 16 4.408-4.406-9.576-5.552A2.306 2.306 0 0 0 8.056 7.42v.002l8.58 8.579Z" style="fill:color(display-p3 .2314 .6784 .2863);fill-opacity:1"></path><path d="M37.916 7.825h-2.334v.578h1.749c-.048.471-.235.841-.552 1.11-.316.269-.72.404-1.197.404-.524 0-.968-.183-1.331-.545-.356-.37-.538-.828-.538-1.38 0-.55.182-1.008.538-1.378a1.814 1.814 0 0 1 1.331-.544c.269 0 .525.047.76.148.235.101.424.242.571.424l.444-.444a1.997 1.997 0 0 0-.773-.531 2.638 2.638 0 0 0-1.002-.19c-.699 0-1.291.243-1.775.727-.484.485-.726 1.083-.726 1.789s.242 1.305.726 1.789a2.416 2.416 0 0 0 1.775.726c.734 0 1.319-.235 1.769-.713.396-.397.598-.935.598-1.607 0-.114-.013-.235-.033-.363Zm.904-2.24V10.4h2.811V9.81h-2.192V8.282h1.977v-.578H39.44V6.178h2.192v-.593H38.82Zm6.753.593v-.593h-3.309v.593h1.345V10.4h.619V6.178h1.345Zm2.995-.593h-.618V10.4h.618V5.585Zm4.084.593v-.593h-3.308v.593h1.345V10.4h.618V6.178h1.345Zm6.244.034c-.477-.492-1.063-.734-1.761-.734-.7 0-1.285.242-1.763.726-.477.478-.712 1.076-.712 1.789 0 .712.235 1.311.712 1.789.478.483 1.063.726 1.763.726.692 0 1.284-.243 1.761-.726.477-.478.712-1.077.712-1.79 0-.705-.234-1.303-.712-1.78Zm-3.08.402a1.773 1.773 0 0 1 1.319-.544c.523 0 .961.182 1.311.544.356.356.531.821.531 1.379 0 .559-.175 1.022-.531 1.379a1.75 1.75 0 0 1-1.311.544c-.525 0-.963-.182-1.319-.544-.349-.364-.524-.82-.524-1.38 0-.557.175-1.014.524-1.378Zm5.262.788-.026-.93h.026l2.448 3.928h.646V5.585h-.619v2.818l.027.929h-.027l-2.34-3.747h-.753V10.4h.618V7.402Z" style="fill:white;fill-opacity:1;stroke:white;stroke-opacity:1" stroke-width=".267" stroke-miterlimit="10"></path></svg></defs><use xlink:href="#google_play"></use></svg>