<?xml version="1.0" encoding="utf-8"?>
<svg class="svg-align telegram" style="height: auto;" width="auto" height="auto" xmlns="http://www.w3.org/2000/svg">
  <defs>
    <svg viewBox="0 0 108 32" id="google_play_v1" xmlns="http://www.w3.org/2000/svg">
      <path d="M85.548 24h1.493V14h-1.493V24Zm13.446-6.398-1.711 4.336h-.052l-1.775-4.336h-1.609l2.665 6.06-1.52 3.37h1.557l4.105-9.43h-1.66Zm-8.466 5.262c-.488 0-1.17-.245-1.17-.85 0-.771.849-1.067 1.582-1.067.656 0 .965.141 1.364.334a1.81 1.81 0 0 1-1.776 1.583Zm.18-5.481c-1.08 0-2.2.476-2.663 1.531l1.325.553c.283-.553.81-.733 1.364-.733.772 0 1.557.463 1.57 1.287v.103a3.304 3.304 0 0 0-1.557-.386c-1.429 0-2.882.784-2.882 2.251 0 1.338 1.17 2.2 2.483 2.2 1.003 0 1.557-.45 1.904-.978h.052v.773h1.441v-3.835c0-1.775-1.326-2.766-3.037-2.766Zm-9.225 1.436H79.36v-3.428h2.123c1.116 0 1.75.924 1.75 1.714 0 .775-.634 1.714-1.75 1.714ZM81.444 14h-3.576V24h1.492v-3.789h2.085c1.654 0 3.28-1.197 3.28-3.105 0-1.909-1.626-3.107-3.28-3.107ZM61.94 22.866c-1.031 0-1.894-.864-1.894-2.05 0-1.198.863-2.074 1.894-2.074 1.018 0 1.817.876 1.817 2.075 0 1.185-.799 2.049-1.817 2.049Zm1.714-4.704h-.052c-.334-.4-.98-.76-1.79-.76-1.702 0-3.262 1.494-3.262 3.415 0 1.907 1.56 3.39 3.261 3.39.812 0 1.457-.362 1.791-.774h.052v.49c0 1.302-.696 1.997-1.817 1.997-.915 0-1.482-.657-1.714-1.211l-1.301.541c.373.902 1.365 2.01 3.015 2.01 1.753 0 3.235-1.03 3.235-3.544v-6.109h-1.418v.555ZM66.104 24h1.494V13.998h-1.495V24Zm3.698-3.3c-.039-1.314 1.019-1.984 1.779-1.984.593 0 1.095.296 1.263.721l-3.042 1.264Zm4.64-1.134c-.284-.76-1.147-2.165-2.913-2.165-1.753 0-3.21 1.38-3.21 3.403 0 1.907 1.444 3.402 3.377 3.402 1.56 0 2.462-.953 2.836-1.508l-1.16-.773c-.387.567-.915.94-1.676.94-.76 0-1.301-.347-1.649-1.03l4.55-1.882-.155-.387Zm-36.246-1.12v1.443h3.454c-.103.812-.374 1.404-.786 1.817-.503.502-1.29 1.057-2.668 1.057-2.127 0-3.79-1.714-3.79-3.84 0-2.127 1.663-3.842 3.79-3.842a3.68 3.68 0 0 1 2.603 1.032l1.019-1.019c-.864-.825-2.011-1.456-3.622-1.456-2.913 0-5.362 2.371-5.362 5.284s2.449 5.284 5.362 5.284c1.572 0 2.758-.515 3.686-1.482.953-.954 1.25-2.294 1.25-3.377 0-.335-.026-.644-.078-.902h-4.858Zm8.863 4.42c-1.031 0-1.92-.85-1.92-2.062 0-1.225.889-2.062 1.92-2.062s1.92.837 1.92 2.062c0 1.211-.889 2.062-1.92 2.062Zm0-5.465c-1.882 0-3.415 1.43-3.415 3.403 0 1.959 1.533 3.402 3.415 3.402 1.882 0 3.415-1.443 3.415-3.402 0-1.972-1.533-3.403-3.415-3.403Zm7.45 5.465c-1.03 0-1.92-.85-1.92-2.062 0-1.225.89-2.062 1.92-2.062 1.032 0 1.92.837 1.92 2.062 0 1.211-.888 2.062-1.92 2.062Zm0-5.465c-1.881 0-3.415 1.43-3.415 3.403 0 1.959 1.534 3.402 3.415 3.402 1.883 0 3.416-1.443 3.416-3.402 0-1.972-1.533-3.403-3.416-3.403Z" style="fill:black;fill-opacity:1"/>
      <path d="m16.573 15.54-8.516 9.04v.005a2.3 2.3 0 0 0 3.39 1.387l.027-.016 9.587-5.532-4.488-4.884Z" style="fill:color(display-p3 .9216 .1922 .1922);fill-opacity:1"/>
      <path d="m25.19 14-.008-.005-4.14-2.4-4.662 4.15 4.679 4.679 4.117-2.376a2.302 2.302 0 0 0 .014-4.047Z" style="fill:color(display-p3 .9647 .7137 .0431);fill-opacity:1"/>
      <path d="M8.055 7.422a2.255 2.255 0 0 0-.078.592v15.974c0 .205.027.403.079.591l8.81-8.808-8.81-8.349Z" style="fill:color(display-p3 .3412 .4706 .7725);fill-opacity:1"/>
      <path d="m16.636 16 4.408-4.406-9.576-5.552A2.306 2.306 0 0 0 8.056 7.42v.002l8.58 8.579Z" style="fill:color(display-p3 .2314 .6784 .2863);fill-opacity:1"/>
      <path d="M37.916 7.825h-2.334v.578h1.749c-.048.471-.235.841-.552 1.11-.316.269-.72.404-1.197.404-.524 0-.968-.183-1.331-.545-.356-.37-.538-.828-.538-1.38 0-.55.182-1.008.538-1.378a1.814 1.814 0 0 1 1.331-.544c.269 0 .525.047.76.148.235.101.424.242.571.424l.444-.444a1.997 1.997 0 0 0-.773-.531 2.638 2.638 0 0 0-1.002-.19c-.699 0-1.291.243-1.775.727-.484.485-.726 1.083-.726 1.789s.242 1.305.726 1.789a2.416 2.416 0 0 0 1.775.726c.734 0 1.319-.235 1.769-.713.396-.397.598-.935.598-1.607 0-.114-.013-.235-.033-.363Zm.904-2.24V10.4h2.811V9.81h-2.192V8.282h1.977v-.578H39.44V6.178h2.192v-.593H38.82Zm6.753.593v-.593h-3.309v.593h1.345V10.4h.619V6.178h1.345Zm2.995-.593h-.618V10.4h.618V5.585Zm4.084.593v-.593h-3.308v.593h1.345V10.4h.618V6.178h1.345Zm6.244.034c-.477-.492-1.063-.734-1.761-.734-.7 0-1.285.242-1.763.726-.477.478-.712 1.076-.712 1.789 0 .712.235 1.311.712 1.789.478.483 1.063.726 1.763.726.692 0 1.284-.243 1.761-.726.477-.478.712-1.077.712-1.79 0-.705-.234-1.303-.712-1.78Zm-3.08.402a1.773 1.773 0 0 1 1.319-.544c.523 0 .961.182 1.311.544.356.356.531.821.531 1.379 0 .559-.175 1.022-.531 1.379a1.75 1.75 0 0 1-1.311.544c-.525 0-.963-.182-1.319-.544-.349-.364-.524-.82-.524-1.38 0-.557.175-1.014.524-1.378Zm5.262.788-.026-.93h.026l2.448 3.928h.646V5.585h-.619v2.818l.027.929h-.027l-2.34-3.747h-.753V10.4h.618V7.402Z" style="fill:black;fill-opacity:1;stroke:black;stroke-opacity:1" stroke-width=".267" stroke-miterlimit="10"/>
    </svg>
  </defs>
  <svg viewBox="0 0 108 32" xmlns="http://www.w3.org/2000/svg">
    <path d="M85.548 24h1.493V14h-1.493V24Zm13.446-6.398-1.711 4.336h-.052l-1.775-4.336h-1.609l2.665 6.06-1.52 3.37h1.557l4.105-9.43h-1.66Zm-8.466 5.262c-.488 0-1.17-.245-1.17-.85 0-.771.849-1.067 1.582-1.067.656 0 .965.141 1.364.334a1.81 1.81 0 0 1-1.776 1.583Zm.18-5.481c-1.08 0-2.2.476-2.663 1.531l1.325.553c.283-.553.81-.733 1.364-.733.772 0 1.557.463 1.57 1.287v.103a3.304 3.304 0 0 0-1.557-.386c-1.429 0-2.882.784-2.882 2.251 0 1.338 1.17 2.2 2.483 2.2 1.003 0 1.557-.45 1.904-.978h.052v.773h1.441v-3.835c0-1.775-1.326-2.766-3.037-2.766Zm-9.225 1.436H79.36v-3.428h2.123c1.116 0 1.75.924 1.75 1.714 0 .775-.634 1.714-1.75 1.714ZM81.444 14h-3.576V24h1.492v-3.789h2.085c1.654 0 3.28-1.197 3.28-3.105 0-1.909-1.626-3.107-3.28-3.107ZM61.94 22.866c-1.031 0-1.894-.864-1.894-2.05 0-1.198.863-2.074 1.894-2.074 1.018 0 1.817.876 1.817 2.075 0 1.185-.799 2.049-1.817 2.049Zm1.714-4.704h-.052c-.334-.4-.98-.76-1.79-.76-1.702 0-3.262 1.494-3.262 3.415 0 1.907 1.56 3.39 3.261 3.39.812 0 1.457-.362 1.791-.774h.052v.49c0 1.302-.696 1.997-1.817 1.997-.915 0-1.482-.657-1.714-1.211l-1.301.541c.373.902 1.365 2.01 3.015 2.01 1.753 0 3.235-1.03 3.235-3.544v-6.109h-1.418v.555ZM66.104 24h1.494V13.998h-1.495V24Zm3.698-3.3c-.039-1.314 1.019-1.984 1.779-1.984.593 0 1.095.296 1.263.721l-3.042 1.264Zm4.64-1.134c-.284-.76-1.147-2.165-2.913-2.165-1.753 0-3.21 1.38-3.21 3.403 0 1.907 1.444 3.402 3.377 3.402 1.56 0 2.462-.953 2.836-1.508l-1.16-.773c-.387.567-.915.94-1.676.94-.76 0-1.301-.347-1.649-1.03l4.55-1.882-.155-.387Zm-36.246-1.12v1.443h3.454c-.103.812-.374 1.404-.786 1.817-.503.502-1.29 1.057-2.668 1.057-2.127 0-3.79-1.714-3.79-3.84 0-2.127 1.663-3.842 3.79-3.842a3.68 3.68 0 0 1 2.603 1.032l1.019-1.019c-.864-.825-2.011-1.456-3.622-1.456-2.913 0-5.362 2.371-5.362 5.284s2.449 5.284 5.362 5.284c1.572 0 2.758-.515 3.686-1.482.953-.954 1.25-2.294 1.25-3.377 0-.335-.026-.644-.078-.902h-4.858Zm8.863 4.42c-1.031 0-1.92-.85-1.92-2.062 0-1.225.889-2.062 1.92-2.062s1.92.837 1.92 2.062c0 1.211-.889 2.062-1.92 2.062Zm0-5.465c-1.882 0-3.415 1.43-3.415 3.403 0 1.959 1.533 3.402 3.415 3.402 1.882 0 3.415-1.443 3.415-3.402 0-1.972-1.533-3.403-3.415-3.403Zm7.45 5.465c-1.03 0-1.92-.85-1.92-2.062 0-1.225.89-2.062 1.92-2.062 1.032 0 1.92.837 1.92 2.062 0 1.211-.888 2.062-1.92 2.062Zm0-5.465c-1.881 0-3.415 1.43-3.415 3.403 0 1.959 1.534 3.402 3.415 3.402 1.883 0 3.416-1.443 3.416-3.402 0-1.972-1.533-3.403-3.416-3.403Z" style="fill-opacity: 1; fill: rgb(255, 255, 255);"/>
    <path d="m16.573 15.54-8.516 9.04v.005a2.3 2.3 0 0 0 3.39 1.387l.027-.016 9.587-5.532-4.488-4.884Z" style="fill:color(display-p3 .9216 .1922 .1922);fill-opacity:1"/>
    <path d="m25.19 14-.008-.005-4.14-2.4-4.662 4.15 4.679 4.679 4.117-2.376a2.302 2.302 0 0 0 .014-4.047Z" style="fill:color(display-p3 .9647 .7137 .0431);fill-opacity:1"/>
    <path d="M8.055 7.422a2.255 2.255 0 0 0-.078.592v15.974c0 .205.027.403.079.591l8.81-8.808-8.81-8.349Z" style="fill:color(display-p3 .3412 .4706 .7725);fill-opacity:1"/>
    <path d="m16.636 16 4.408-4.406-9.576-5.552A2.306 2.306 0 0 0 8.056 7.42v.002l8.58 8.579Z" style="fill:color(display-p3 .2314 .6784 .2863);fill-opacity:1"/>
    <path d="M 37.916 7.825 L 35.582 7.825 L 35.582 8.403 L 37.331 8.403 C 37.283 8.874 37.096 9.244 36.779 9.513 C 36.463 9.782 36.059 9.917 35.582 9.917 C 35.058 9.917 34.614 9.734 34.251 9.372 C 33.895 9.002 33.713 8.544 33.713 7.992 C 33.713 7.442 33.895 6.984 34.251 6.614 C 34.601 6.257 35.082 6.06 35.582 6.07 C 35.851 6.07 36.107 6.117 36.342 6.218 C 36.577 6.319 36.766 6.46 36.913 6.642 L 37.357 6.198 C 37.145 5.962 36.88 5.78 36.584 5.667 C 36.266 5.539 35.925 5.475 35.582 5.477 C 34.883 5.477 34.291 5.72 33.807 6.204 C 33.323 6.689 33.081 7.287 33.081 7.993 C 33.081 8.699 33.323 9.298 33.807 9.782 C 34.273 10.259 34.916 10.521 35.582 10.508 C 36.316 10.508 36.901 10.273 37.351 9.795 C 37.747 9.398 37.949 8.86 37.949 8.188 C 37.949 8.074 37.936 7.953 37.916 7.825 L 37.916 7.825 Z M 38.82 5.585 L 38.82 10.4 L 41.631 10.4 L 41.631 9.81 L 39.439 9.81 L 39.439 8.282 L 41.416 8.282 L 41.416 7.704 L 39.44 7.704 L 39.44 6.178 L 41.632 6.178 L 41.632 5.585 L 38.82 5.585 Z M 45.573 6.178 L 45.573 5.585 L 42.264 5.585 L 42.264 6.178 L 43.609 6.178 L 43.609 10.4 L 44.228 10.4 L 44.228 6.178 L 45.573 6.178 Z M 48.568 5.585 L 47.95 5.585 L 47.95 10.4 L 48.568 10.4 L 48.568 5.585 Z M 52.652 6.178 L 52.652 5.585 L 49.344 5.585 L 49.344 6.178 L 50.689 6.178 L 50.689 10.4 L 51.307 10.4 L 51.307 6.178 L 52.652 6.178 Z M 58.896 6.212 C 58.419 5.72 57.833 5.478 57.135 5.478 C 56.435 5.478 55.85 5.72 55.372 6.204 C 54.895 6.682 54.66 7.993 54.66 7.993 C 54.66 8.705 54.895 9.304 55.372 9.782 C 55.85 10.265 56.435 10.508 57.135 10.508 C 57.827 10.508 58.419 10.265 58.896 9.782 C 59.373 9.304 59.608 8.705 59.608 7.992 C 59.608 7.287 59.374 6.689 58.896 6.212 Z M 55.816 6.614 C 56.16 6.256 56.639 6.059 57.135 6.07 C 57.658 6.07 58.096 6.252 58.446 6.614 C 58.802 6.97 58.977 7.435 58.977 7.993 C 58.977 8.552 58.802 9.015 58.446 9.372 C 58.105 9.73 57.629 9.928 57.135 9.916 C 56.61 9.916 56.172 9.734 55.816 9.372 C 55.467 9.008 55.292 8.552 55.292 7.992 C 55.292 7.435 55.467 6.978 55.816 6.614 Z M 61.078 7.402 L 61.052 6.472 L 61.078 6.472 L 63.526 10.4 L 64.172 10.4 L 64.172 5.585 L 63.553 5.585 L 63.553 8.403 L 63.58 9.332 L 63.553 9.332 L 61.213 5.585 L 60.46 5.585 L 60.46 10.4 L 61.078 10.4 L 61.078 7.402 L 61.078 7.402 Z" style="fill-opacity: 1; stroke-opacity: 1; fill: rgb(255, 255, 255); stroke: rgb(255, 255, 255);" stroke-width=".267" stroke-miterlimit="10"/>
  </svg>
</svg>